<svg width="98" height="98" viewBox="0 0 98 98" fill="none" xmlns="http://www.w3.org/2000/svg">
<path id="Trac&#195;&#169; 222" d="M48.9809 22.916L50.7619 19.849C51.0132 19.374 51.3576 18.9544 51.7746 18.6155C52.1916 18.2765 52.6727 18.025 53.189 17.8761C53.7053 17.7271 54.2464 17.6838 54.7799 17.7485C55.3134 17.8133 55.8283 17.985 56.294 18.2532C56.7597 18.5214 57.1665 18.8807 57.4903 19.3096C57.814 19.7385 58.048 20.2283 58.1783 20.7496C58.3086 21.271 58.3325 21.8132 58.2486 22.344C58.1646 22.8748 57.9747 23.3832 57.6899 23.839L40.5639 53.484H52.9539C56.9659 53.484 59.2159 58.202 57.4749 61.473H21.1749C20.1264 61.4564 19.1265 61.0283 18.391 60.281C17.6554 59.5337 17.2431 58.5271 17.2431 57.4785C17.2431 56.4299 17.6554 55.4233 18.391 54.676C19.1265 53.9287 20.1264 53.5006 21.1749 53.484H31.3519L44.3859 30.905L40.3149 23.838C40.0301 23.3823 39.8401 22.8738 39.7562 22.343C39.6723 21.8122 39.6962 21.27 39.8264 20.7487C39.9567 20.2273 40.1908 19.7375 40.5146 19.3086C40.8383 18.8797 41.2452 18.5204 41.7108 18.2522C42.1765 17.984 42.6915 17.8123 43.2249 17.7476C43.7584 17.6828 44.2995 17.7262 44.8158 17.8751C45.3322 18.0241 45.8132 18.2755 46.2302 18.6145C46.6472 18.9535 46.9916 19.373 47.2429 19.848L48.9809 22.916ZM33.5809 65.5801L29.7449 72.239C29.1959 73.1176 28.3275 73.749 27.3225 74.0001C26.3174 74.2513 25.2541 74.1027 24.3564 73.5857C23.4586 73.0687 22.7965 72.2235 22.5094 71.2281C22.2222 70.2328 22.3325 69.1648 22.8169 68.249L25.6749 63.318C27.059 62.7828 28.5799 62.7142 30.0066 63.1224C31.4332 63.5307 32.6875 64.3937 33.5789 65.5801H33.5809ZM66.6359 53.504H77.0289C78.0774 53.5206 79.0773 53.9487 79.8128 54.696C80.5484 55.4434 80.9607 56.4499 80.9607 57.4985C80.9607 58.5471 80.5484 59.5537 79.8128 60.301C79.0773 61.0483 78.0774 61.4765 77.0289 61.493H71.2549L75.1499 68.249C75.6343 69.1648 75.7446 70.2328 75.4574 71.2281C75.1703 72.2235 74.5082 73.0687 73.6104 73.5857C72.7127 74.1027 71.6494 74.2513 70.6443 74.0001C69.6393 73.749 68.7709 73.1176 68.2219 72.239C61.6659 60.8623 56.7472 52.3427 53.4659 46.6801C50.1189 40.9041 52.5069 35.1081 54.8749 33.1581C57.4956 37.6514 61.4152 44.4334 66.6339 53.504H66.6359ZM48.9999 0.822022C39.4002 0.822022 30.0161 3.66864 22.0342 9.00195C14.0523 14.3353 7.83121 21.9157 4.15756 30.7847C0.483913 39.6536 -0.477271 49.4129 1.39554 58.8281C3.26835 68.2434 7.89103 76.8918 14.679 83.6798C21.4671 90.4678 30.1155 95.0906 39.5308 96.9634C48.946 98.8362 58.7052 97.8751 67.5742 94.2014C76.4432 90.5278 84.0237 84.3066 89.357 76.3247C94.6903 68.3428 97.5369 58.9587 97.5369 49.359C97.5379 42.9847 96.2832 36.6727 93.8444 30.7834C91.4055 24.8942 87.8304 19.5432 83.3231 15.0359C78.8158 10.5286 73.4647 6.95337 67.5755 4.51453C61.6862 2.07569 55.3742 0.820971 48.9999 0.822022ZM91.2739 49.359C91.2735 57.7197 88.7939 65.8925 84.1487 72.844C79.5035 79.7955 72.9013 85.2135 65.1769 88.4127C57.4526 91.612 48.953 92.4489 40.753 90.8176C32.553 89.1864 25.0209 85.1601 19.109 79.2482C13.1972 73.3362 9.1712 65.804 7.54013 57.604C5.90907 49.404 6.7462 40.9043 9.94565 33.1801C13.1451 25.4558 18.5632 18.8537 25.5147 14.2086C32.4663 9.56357 40.6392 7.08418 48.9999 7.08398C60.2117 7.08398 70.9642 11.5379 78.8921 19.4658C86.82 27.3937 91.2739 38.1472 91.2739 49.359Z" fill="#F0FEF2"/>
</svg>
