<svg width="115" height="54" viewBox="0 0 115 54" fill="none" xmlns="http://www.w3.org/2000/svg">
<path d="M39.0401 40.724C39.5681 40.724 40.0241 40.928 40.4081 41.336L44.2241 45.476C42.1121 48.092 39.5081 50.096 36.4121 51.488C33.3401 52.88 29.6441 53.576 25.3241 53.576C21.4601 53.576 17.9801 52.916 14.8841 51.596C11.8121 50.276 9.18406 48.44 7.00006 46.088C4.81606 43.736 3.13606 40.928 1.96006 37.664C0.808061 34.4 0.232061 30.836 0.232061 26.972C0.232061 23.06 0.880061 19.484 2.17606 16.244C3.47206 12.98 5.29606 10.172 7.64806 7.82C10.0001 5.468 12.8081 3.644 16.0721 2.348C19.3601 1.028 22.9841 0.368 26.9441 0.368C30.8081 0.368 34.1801 0.991999 37.0601 2.24C39.9641 3.464 42.4481 5.096 44.5121 7.136L41.2721 11.636C41.0801 11.924 40.8281 12.176 40.5161 12.392C40.2281 12.608 39.8201 12.716 39.2921 12.716C38.7401 12.716 38.1761 12.5 37.6001 12.068C37.0241 11.636 36.2921 11.168 35.4041 10.664C34.5161 10.16 33.3881 9.692 32.0201 9.26C30.6761 8.828 28.9601 8.612 26.8721 8.612C24.4241 8.612 22.1681 9.044 20.1041 9.908C18.0641 10.748 16.3001 11.96 14.8121 13.544C13.3481 15.128 12.1961 17.06 11.3561 19.34C10.5401 21.596 10.1321 24.14 10.1321 26.972C10.1321 29.9 10.5401 32.504 11.3561 34.784C12.1961 37.064 13.3241 38.984 14.7401 40.544C16.1561 42.104 17.8241 43.304 19.7441 44.144C21.6641 44.96 23.7281 45.368 25.9361 45.368C27.2561 45.368 28.4441 45.296 29.5001 45.152C30.5801 45.008 31.5641 44.78 32.4521 44.468C33.3641 44.156 34.2161 43.76 35.0081 43.28C35.8241 42.776 36.6281 42.164 37.4201 41.444C37.6601 41.228 37.9121 41.06 38.1761 40.94C38.4401 40.796 38.7281 40.724 39.0401 40.724ZM75.4648 45.872C77.6487 45.872 79.5447 45.68 81.1528 45.296C82.7847 44.888 84.3327 44.336 85.7967 43.64V34.172H79.2808C78.6568 34.172 78.1648 34.004 77.8048 33.668C77.4447 33.308 77.2647 32.876 77.2647 32.372V26.9H94.5808V47.96C93.2607 48.92 91.8807 49.76 90.4408 50.48C89.0248 51.176 87.5008 51.752 85.8688 52.208C84.2608 52.664 82.5328 53 80.6848 53.216C78.8367 53.456 76.8447 53.576 74.7087 53.576C70.9167 53.576 67.4247 52.916 64.2327 51.596C61.0407 50.276 58.2807 48.44 55.9527 46.088C53.6247 43.736 51.8007 40.928 50.4807 37.664C49.1847 34.4 48.5367 30.836 48.5367 26.972C48.5367 23.06 49.1727 19.472 50.4447 16.208C51.7167 12.944 53.5167 10.136 55.8447 7.784C58.1967 5.432 61.0407 3.608 64.3767 2.312C67.7127 1.016 71.4567 0.368 75.6087 0.368C79.8568 0.368 83.5287 1.004 86.6247 2.276C89.7447 3.524 92.3847 5.156 94.5447 7.172L91.7368 11.564C91.1848 12.452 90.4528 12.896 89.5408 12.896C88.9648 12.896 88.3768 12.704 87.7768 12.32C87.0087 11.864 86.2167 11.408 85.4008 10.952C84.6088 10.496 83.7208 10.1 82.7368 9.764C81.7768 9.428 80.6848 9.152 79.4608 8.936C78.2608 8.72 76.8688 8.612 75.2848 8.612C72.7167 8.612 70.3887 9.044 68.3007 9.908C66.2367 10.772 64.4727 12.008 63.0087 13.616C61.5447 15.224 60.4167 17.156 59.6247 19.412C58.8327 21.668 58.4367 24.188 58.4367 26.972C58.4367 29.972 58.8567 32.648 59.6967 35C60.5367 37.328 61.7127 39.296 63.2247 40.904C64.7368 42.512 66.5367 43.748 68.6247 44.612C70.7127 45.452 72.9927 45.872 75.4648 45.872ZM114.5 53H104.78V0.943996H114.5V53Z" fill="#E8E8E8"/>
</svg>
