<svg width="74" height="74" viewBox="0 0 74 74" fill="none" xmlns="http://www.w3.org/2000/svg">
<path id="Polygone 5" d="M44.5794 1.39533C44.7958 1.00512 45.1366 0.698503 45.5474 0.524249C45.9582 0.349994 46.4155 0.318111 46.8465 0.433673C47.2775 0.549234 47.6575 0.805601 47.926 1.162C48.1945 1.51839 48.3362 1.95435 48.3284 2.40052L47.8679 29.4988C47.8617 29.8612 47.9542 30.2185 48.1354 30.5324C48.3166 30.8464 48.5797 31.1052 48.8965 31.2812L72.5905 44.4388C72.9807 44.6553 73.2874 44.996 73.4616 45.4069C73.6359 45.8177 73.6678 46.2749 73.5522 46.706C73.4366 47.137 73.1803 47.517 72.8239 47.7855C72.4675 48.054 72.0315 48.1957 71.5854 48.1879L44.4871 47.7273C44.1246 47.7212 43.7674 47.8137 43.4534 47.9949C43.1395 48.1761 42.8807 48.4391 42.7047 48.756L29.547 72.45C29.3306 72.8402 28.9898 73.1468 28.579 73.3211C28.1682 73.4953 27.7109 73.5272 27.2799 73.4117C26.8489 73.2961 26.4689 73.0397 26.2004 72.6833C25.9318 72.3269 25.7902 71.891 25.798 71.4448L26.2585 44.3465C26.2647 43.9841 26.1722 43.6268 25.991 43.3129C25.8098 42.999 25.5467 42.7402 25.2299 42.5642L1.53586 29.4065C1.14565 29.19 0.839033 28.8493 0.664777 28.4385C0.490523 28.0277 0.458639 27.5704 0.574201 27.1394C0.689762 26.7084 0.94613 26.3284 1.30253 26.0599C1.65892 25.7913 2.09488 25.6497 2.54104 25.6575L29.6393 26.118C30.0017 26.1241 30.359 26.0317 30.673 25.8505C30.9869 25.6693 31.2457 25.4062 31.4217 25.0893L44.5794 1.39533Z" fill="#E3FDE6"/>
</svg>
