<svg width="37" height="60" viewBox="0 0 37 60" fill="none" xmlns="http://www.w3.org/2000/svg">
<path id="Subtract" fill-rule="evenodd" clip-rule="evenodd" d="M0 59.7548L5.91374 49.1055C6.08974 48.7886 6.34855 48.5255 6.66248 48.3444C6.97642 48.1632 7.33369 48.0707 7.69611 48.0768L34.7944 48.5374C35.2406 48.5452 35.6765 48.4035 36.0329 48.135C36.3893 47.8664 36.6457 47.4865 36.7612 47.0554C36.8768 46.6244 36.8449 46.1672 36.6707 45.7563C36.4964 45.3455 36.1898 45.0048 35.7996 44.7883L12.1056 31.6307C11.7887 31.4547 11.5256 31.1959 11.3444 30.8819C11.1633 30.568 11.0708 30.2107 11.0769 29.8483L11.5375 2.75001C11.5452 2.30384 11.4036 1.86788 11.1351 1.51149C10.8665 1.15509 10.4865 0.898725 10.0555 0.783164C9.62451 0.667603 9.16724 0.699485 8.75643 0.87374C8.34562 1.04799 8.00488 1.35461 7.78841 1.74483L0 15.77V59.7548Z" fill="#E3FDE6"/>
</svg>
