<svg width="38" height="37" viewBox="0 0 38 37" fill="none" xmlns="http://www.w3.org/2000/svg">
<path id="Polygone 3" d="M4.0682 3.19572C3.78823 2.78107 3.67389 2.27652 3.74776 1.78168C3.82163 1.28685 4.07835 0.83769 4.46722 0.522889C4.85609 0.208088 5.34886 0.050526 5.84823 0.0813072C6.3476 0.112088 6.81728 0.328977 7.16455 0.689152L18.2465 12.1813C18.5731 12.5198 19.0085 12.7324 19.4763 12.7817C19.944 12.8309 20.4142 12.7136 20.804 12.4505L34.036 3.51773C34.4507 3.23776 34.9552 3.12342 35.45 3.19729C35.9449 3.27116 36.394 3.52788 36.7088 3.91675C37.0236 4.30562 37.1812 4.79838 37.1504 5.29776C37.1196 5.79713 36.9028 6.26681 36.5426 6.61408L25.0504 17.6961C24.7119 18.0226 24.4993 18.458 24.4501 18.9258C24.4008 19.3936 24.5181 19.8637 24.7812 20.2536L33.714 33.4855C33.994 33.9002 34.1083 34.4047 34.0344 34.8996C33.9606 35.3944 33.7039 35.8436 33.315 36.1584C32.9261 36.4732 32.4334 36.6307 31.934 36.6C31.4346 36.5692 30.9649 36.3523 30.6177 35.9921L19.5357 24.4999C19.2092 24.1614 18.7737 23.9488 18.3059 23.8996C17.8382 23.8504 17.368 23.9676 16.9782 24.2307L3.74619 33.1635C3.33154 33.4435 2.82699 33.5578 2.33216 33.484C1.83732 33.4101 1.38816 33.1534 1.07336 32.7645C0.758563 32.3756 0.601 31.8829 0.631781 31.3835C0.662563 30.8841 0.879451 30.4145 1.23963 30.0672L12.7318 18.9852C13.0703 18.6587 13.2829 18.2232 13.3321 17.7555C13.3814 17.2877 13.2641 16.8176 13.001 16.4277L4.0682 3.19572Z" fill="#E3FDE6"/>
</svg>
