<svg width="34" height="34" viewBox="0 0 34 34" fill="none" xmlns="http://www.w3.org/2000/svg">
<path id="Polygone 25" d="M3.238 3.56073C2.95802 3.14609 2.84368 2.64154 2.91756 2.1467C2.99143 1.65186 3.24814 1.20271 3.63701 0.887907C4.02588 0.573108 4.51865 0.415544 5.01802 0.446325C5.51739 0.477108 5.98707 0.693996 6.33434 1.05417L15.9432 11.0173C16.2697 11.3558 16.7051 11.5684 17.1729 11.6177C17.6407 11.6669 18.1108 11.5496 18.5007 11.2865L29.9734 3.54249C30.3881 3.26252 30.8926 3.14818 31.3875 3.22206C31.8823 3.29593 32.3314 3.55264 32.6462 3.94151C32.961 4.33038 33.1186 4.82315 33.0878 5.32252C33.057 5.82189 32.8402 6.29157 32.48 6.63884L22.5168 16.2477C22.1783 16.5742 21.9657 17.0096 21.9165 17.4774C21.8673 17.9452 21.9845 18.4153 22.2476 18.8052L29.9917 30.2779C30.2716 30.6926 30.386 31.1971 30.3121 31.6919C30.2382 32.1868 29.9815 32.6359 29.5926 32.9507C29.2038 33.2655 28.711 33.4231 28.2116 33.3923C27.7123 33.3615 27.2426 33.1447 26.8953 32.7845L17.2865 22.8213C16.96 22.4828 16.5245 22.2702 16.0568 22.221C15.589 22.1718 15.1188 22.289 14.729 22.5521L3.25624 30.2962C2.84159 30.5761 2.33704 30.6905 1.8422 30.6166C1.34737 30.5427 0.898208 30.286 0.583408 29.8971C0.268608 29.5083 0.111044 29.0155 0.141825 28.5161C0.172606 28.0168 0.389495 27.5471 0.749672 27.1998L10.7128 17.591C11.0513 17.2645 11.2639 16.829 11.3132 16.3613C11.3624 15.8935 11.2451 15.4233 10.982 15.0335L3.238 3.56073Z" fill="#E3FDE6"/>
</svg>
