<svg width="50" height="52" viewBox="0 0 50 52" fill="none" xmlns="http://www.w3.org/2000/svg">
<path id="Union 2" d="M24.2371 51.9299C23.0046 51.8868 21.8319 51.388 20.9461 50.53L2.24587 32.468C1.77358 32.0119 1.39585 31.4672 1.13406 30.865C0.87227 30.2628 0.731417 29.615 0.719995 28.9585C0.708574 28.302 0.82648 27.6497 1.06716 27.0388C1.30785 26.4279 1.66668 25.8702 2.12283 25.3979C2.57891 24.9256 3.12372 24.5478 3.72585 24.2859C4.32798 24.024 4.97559 23.8833 5.6321 23.8718C6.28862 23.8603 6.94108 23.9782 7.55203 24.2188C8.16297 24.4593 8.72029 24.8178 9.19265 25.2739L20.0701 35.7739V5C20.0701 3.67392 20.5968 2.40204 21.5344 1.46436C22.4721 0.526674 23.744 0 25.0701 0C26.3962 0 27.6676 0.526674 28.6052 1.46436C29.5429 2.40204 30.0701 3.67392 30.0701 5V35.6499L40.8137 25.2759C41.7676 24.355 43.0482 23.8507 44.3738 23.8738C45.6994 23.8968 46.9619 24.4454 47.8831 25.3989C48.3392 25.8713 48.6977 26.4289 48.9383 27.0398C49.1789 27.6507 49.2964 28.3032 49.2849 28.9597C49.2734 29.6162 49.1327 30.2641 48.8709 30.8662C48.609 31.4683 48.2314 32.0129 47.7591 32.469L29.0589 50.531C28.2225 51.3402 27.1295 51.8311 25.969 51.9189C25.672 51.9726 25.3704 51.9995 25.0686 51.999C24.7899 51.999 24.512 51.9759 24.2371 51.9299Z" fill="#EC5F04"/>
</svg>
