<svg width="38" height="38" viewBox="0 0 38 38" fill="none" xmlns="http://www.w3.org/2000/svg">
<path id="Polygone 4" d="M4.06716 3.86271C3.78719 3.44806 3.67285 2.94351 3.74672 2.44868C3.8206 1.95384 4.07731 1.50468 4.46618 1.18988C4.85505 0.875081 5.34782 0.717518 5.84719 0.748299C6.34656 0.779081 6.81624 0.995969 7.16351 1.35614L18.2455 12.8483C18.572 13.1868 19.0075 13.3994 19.4752 13.4487C19.943 13.4979 20.4131 13.3806 20.803 13.1175L34.035 4.18472C34.4496 3.90475 34.9542 3.79041 35.449 3.86429C35.9439 3.93816 36.393 4.19487 36.7078 4.58374C37.0226 4.97261 37.1802 5.46538 37.1494 5.96475C37.1186 6.46412 36.9017 6.9338 36.5415 7.28107L25.0494 18.363C24.7109 18.6896 24.4983 19.125 24.449 19.5928C24.3998 20.0605 24.5171 20.5307 24.7802 20.9206L33.713 34.1525C33.9929 34.5672 34.1073 35.0717 34.0334 35.5666C33.9595 36.0614 33.7028 36.5106 33.314 36.8254C32.9251 37.1402 32.4323 37.2977 31.9329 37.2669C31.4336 37.2362 30.9639 37.0193 30.6166 36.6591L19.5346 25.1669C19.2081 24.8284 18.7727 24.6158 18.3049 24.5666C17.8371 24.5174 17.367 24.6346 16.9771 24.8977L3.74515 33.8305C3.3305 34.1105 2.82596 34.2248 2.33112 34.151C1.83628 34.0771 1.38713 33.8204 1.07233 33.4315C0.757525 33.0426 0.599963 32.5499 0.630744 32.0505C0.661525 31.5511 0.878414 31.0814 1.23859 30.7342L12.7308 19.6522C13.0693 19.3257 13.2819 18.8902 13.3311 18.4225C13.3803 17.9547 13.2631 17.4846 13 17.0947L4.06716 3.86271Z" fill="#E3FDE6"/>
</svg>
