<svg width="85" height="85" viewBox="0 0 85 85" fill="none" xmlns="http://www.w3.org/2000/svg">
<path id="Polygone 6" d="M8.79057 4.05516C8.5106 3.64051 8.39626 3.13596 8.47013 2.64112C8.54401 2.14629 8.80071 1.69713 9.18958 1.38233C9.57846 1.06753 10.0712 0.909966 10.5706 0.940747C11.07 0.97153 11.5396 1.18842 11.8869 1.54859L42.5357 33.33C42.8623 33.6686 43.2977 33.8811 43.7654 33.9304C44.2332 33.9796 44.7034 33.8624 45.0932 33.5993L81.6878 8.89605C82.1024 8.61607 82.607 8.50174 83.1018 8.57561C83.5967 8.64949 84.0458 8.9062 84.3606 9.29507C84.6754 9.68394 84.833 10.1767 84.8022 10.6761C84.7714 11.1754 84.5545 11.6451 84.1944 11.9924L52.4129 42.6412C52.0744 42.9677 51.8618 43.4032 51.8126 43.8709C51.7633 44.3387 51.8806 44.8088 52.1437 45.1987L76.8469 81.7933C77.1269 82.2079 77.2412 82.7125 77.1673 83.2073C77.0935 83.7021 76.8367 84.1513 76.4479 84.4661C76.059 84.7809 75.5662 84.9385 75.0669 84.9077C74.5675 84.8769 74.0978 84.66 73.7505 84.2998L43.1017 52.5184C42.7752 52.1799 42.3398 51.9673 41.872 51.918C41.4042 51.8688 40.9341 51.9861 40.5442 52.2492L3.94968 76.9524C3.53503 77.2323 3.03048 77.3467 2.53564 77.2728C2.04081 77.1989 1.59165 76.9422 1.27685 76.5534C0.962047 76.1645 0.804486 75.6717 0.835267 75.1724C0.866049 74.673 1.08294 74.2033 1.44311 73.856L33.2246 43.2072C33.5631 42.8807 33.7757 42.4453 33.8249 41.9775C33.8741 41.5097 33.7569 41.0396 33.4938 40.6497L8.79057 4.05516Z" fill="#E3FDE6"/>
</svg>
