<svg width="44" height="44" viewBox="0 0 44 44" fill="none" xmlns="http://www.w3.org/2000/svg">
<path id="Polygone 28" d="M4.54729 3.53053C4.26731 3.11588 4.15297 2.61133 4.22685 2.11649C4.30072 1.62166 4.55743 1.1725 4.9463 0.857698C5.33517 0.542897 5.82794 0.385335 6.32731 0.416116C6.82668 0.446897 7.29637 0.663786 7.64363 1.02396L21.5967 15.4923C21.9232 15.8309 22.3586 16.0434 22.8264 16.0927C23.2942 16.1419 23.7643 16.0247 24.1542 15.7615L40.814 4.51558C41.2286 4.2356 41.7332 4.12127 42.228 4.19514C42.7229 4.26901 43.172 4.52572 43.4868 4.9146C43.8016 5.30347 43.9592 5.79623 43.9284 6.29561C43.8976 6.79498 43.6807 7.26466 43.3205 7.61192L28.8515 21.5642C28.513 21.8907 28.3004 22.3261 28.2512 22.7939C28.202 23.2617 28.3192 23.7318 28.5823 24.1217L39.8283 40.7815C40.1083 41.1961 40.2226 41.7007 40.1487 42.1955C40.0749 42.6904 39.8182 43.1395 39.4293 43.4543C39.0404 43.7691 38.5476 43.9267 38.0483 43.8959C37.5489 43.8651 37.0792 43.6482 36.732 43.2881L22.7797 28.8191C22.4532 28.4805 22.0177 28.268 21.55 28.2187C21.0822 28.1695 20.6121 28.2867 20.2222 28.5499L3.56238 39.7958C3.14773 40.0758 2.64319 40.1901 2.14835 40.1163C1.65351 40.0424 1.20436 39.7857 0.889556 39.3968C0.574756 39.0079 0.417193 38.5152 0.447974 38.0158C0.478755 37.5164 0.695644 37.0467 1.05582 36.6995L15.5242 22.7464C15.8627 22.4199 16.0753 21.9845 16.1245 21.5167C16.1738 21.0489 16.0565 20.5788 15.7934 20.1889L4.54729 3.53053Z" fill="#E3FDE6"/>
</svg>
